<svg width="112" height="14" viewBox="0 0 112 14" fill="none" xmlns="http://www.w3.org/2000/svg">
<path d="M0.86084 0.773966C0.86084 0.558943 1.04654 0.451431 1.41794 0.451431C1.45704 0.451431 1.56455 0.461205 1.74048 0.480752C1.93595 0.5003 2.19007 0.519848 2.50283 0.539395C2.81559 0.558943 3.1479 0.568717 3.49976 0.568717C3.77342 0.568717 4.00799 0.568717 4.20347 0.568717C4.39894 0.549169 4.64329 0.539395 4.9365 0.539395C5.52293 0.539395 5.89433 0.558942 6.05071 0.598038C6.22664 0.617585 6.3146 0.705549 6.3146 0.861929C6.3146 1.01831 6.20709 1.12582 5.99207 1.18446C5.77705 1.22356 5.56202 1.3213 5.347 1.47768C5.13198 1.61451 5.02447 1.86863 5.02447 2.24003C5.02447 2.94374 5.5718 4.52709 6.66646 6.99008C6.80329 7.26375 6.98899 7.69379 7.22356 8.28022C7.45813 8.8471 7.64384 9.26737 7.78067 9.54104C7.9175 9.79515 8.02501 9.92221 8.1032 9.92221C8.18139 9.92221 8.57234 9.24782 9.27605 7.89904C9.41289 7.66447 9.54972 7.40058 9.68655 7.10737C9.84293 6.81415 9.96022 6.59913 10.0384 6.4623C10.1166 6.30592 10.2046 6.13976 10.3023 5.96384C10.4 5.76836 10.4685 5.63153 10.5075 5.55334C10.5466 5.4556 10.5857 5.34809 10.6248 5.2308C10.6835 5.11352 10.7226 5.03533 10.7421 4.99623C10.7617 4.93759 10.7812 4.86917 10.8008 4.79098C10.8203 4.69325 10.8301 4.61506 10.8301 4.55641C10.8301 4.49777 10.8301 4.42935 10.8301 4.35116C10.8301 4.21433 10.7323 3.92112 10.5369 3.47153C10.3609 3.02193 10.1752 2.65053 9.97977 2.35732C9.76474 2.04456 9.53995 1.79044 9.30538 1.59496C9.07081 1.39949 8.8851 1.2822 8.74827 1.24311C8.63099 1.18446 8.52347 1.12582 8.42574 1.06718C8.34755 1.00854 8.30845 0.920572 8.30845 0.803287C8.30845 0.627359 8.45506 0.539395 8.74827 0.539395C9.27605 0.539395 9.66701 0.549169 9.92112 0.568717C10.1752 0.588264 10.9669 0.598038 12.2961 0.598038C12.5698 0.598038 12.7653 0.598038 12.8826 0.598038C12.9999 0.57849 13.1074 0.568717 13.2051 0.568717C13.6352 0.568717 13.8502 0.705549 13.8502 0.979215C13.8502 1.03786 13.8404 1.08673 13.8209 1.12582C13.8209 1.16492 13.7915 1.19424 13.7329 1.21378C13.6938 1.23333 13.6547 1.25288 13.6156 1.27243C13.5765 1.27243 13.5081 1.27243 13.4104 1.27243C12.8239 1.31152 12.5307 1.58519 12.5307 2.09342C12.5307 2.81668 13.1074 4.4489 14.2607 6.99008C14.4171 7.30284 14.6028 7.73289 14.8178 8.28022C15.0328 8.82755 15.199 9.24782 15.3162 9.54104C15.4531 9.8147 15.5606 9.95153 15.6388 9.95153C15.8343 9.95153 16.3425 8.88619 17.1635 6.75551C18.004 4.60528 18.4243 3.19786 18.4243 2.53324C18.4243 2.18139 18.3363 1.9175 18.1604 1.74157C18.004 1.54609 17.8183 1.43858 17.6033 1.41903C17.4078 1.37994 17.2221 1.3213 17.0462 1.24311C16.8898 1.14537 16.8116 1.00854 16.8116 0.832608C16.8116 0.676228 17.0169 0.598038 17.4274 0.598038H20.7993C21.1707 0.598038 21.4053 0.617585 21.503 0.65668C21.6008 0.695775 21.6496 0.803287 21.6496 0.979215C21.6496 1.15514 21.4835 1.31152 21.1512 1.44836C20.8384 1.56564 20.5745 1.77089 20.3595 2.0641C20.1836 2.31822 20.0174 2.61143 19.861 2.94374C19.7047 3.2565 19.5287 3.65723 19.3333 4.14592C19.1378 4.61506 18.7468 5.4947 18.1604 6.78483C17.5935 8.07497 16.9191 9.55081 16.1372 11.2123C15.9222 11.6619 15.7658 11.9747 15.6681 12.1506C15.5899 12.3266 15.4824 12.5318 15.3456 12.7664C15.2283 13.0009 15.1208 13.1573 15.023 13.2355C14.9448 13.3137 14.8667 13.3528 14.7885 13.3528C14.4562 13.3528 13.8306 12.092 12.9119 9.57036C11.9932 7.02918 11.4556 5.75859 11.2992 5.75859C11.2406 5.75859 10.6151 7.00963 9.42266 9.51171C8.23026 12.0138 7.44836 13.2648 7.07696 13.2648C6.92058 13.2648 6.77397 13.128 6.63714 12.8543C6.5003 12.5807 6.18754 11.8085 5.69886 10.538C4.95605 8.60275 4.25234 6.82393 3.58772 5.20148C3.47044 4.88872 3.32383 4.49777 3.1479 4.02863C2.99152 3.53994 2.86446 3.20763 2.76672 3.03171C2.68853 2.83623 2.53215 2.59189 2.29758 2.29867C2.08256 1.98591 1.78935 1.67315 1.41794 1.36039C1.3593 1.30175 1.29089 1.25288 1.2127 1.21378C1.15405 1.17469 1.10518 1.14537 1.06609 1.12582C1.02699 1.10627 0.987899 1.08673 0.948804 1.06718C0.909709 1.02808 0.880387 0.988988 0.86084 0.949893C0.86084 0.891251 0.86084 0.832608 0.86084 0.773966Z" fill="black"/>
<path d="M21.3198 7.2833C21.3198 5.32854 21.8671 3.67677 22.9618 2.32799C24.076 0.979215 25.5127 0.304825 27.272 0.304825C28.093 0.304825 28.8358 0.451431 29.5004 0.744644C30.1846 1.03786 30.7124 1.39949 31.0838 1.82953C31.4552 2.24003 31.7679 2.67985 32.0221 3.14899C32.2762 3.61813 32.4423 4.00908 32.5205 4.32184C32.6183 4.61506 32.6671 4.83008 32.6671 4.96691C32.6671 5.31877 32.2664 5.49469 31.465 5.49469H23.9294C23.773 5.49469 23.6753 5.51424 23.6362 5.55334C23.6166 5.57289 23.6068 5.66085 23.6068 5.81723C23.6068 7.6547 24.0955 9.10122 25.0729 10.1568C26.0698 11.2123 27.2329 11.7401 28.5621 11.7401C29.3831 11.7401 30.2139 11.5251 31.0545 11.0951C31.9145 10.6455 32.3641 10.4207 32.4032 10.4207C32.5987 10.4207 32.6964 10.5086 32.6964 10.6846C32.6964 10.7628 32.628 10.9094 32.4912 11.1244C32.3544 11.3199 32.1393 11.5544 31.8461 11.8281C31.5529 12.1018 31.2108 12.3657 30.8199 12.6198C30.4289 12.8739 29.9402 13.0889 29.3538 13.2648C28.7674 13.4408 28.1516 13.5287 27.5066 13.5287C25.7864 13.5287 24.3203 13.0009 23.1084 11.9454C21.916 10.8898 21.3198 9.33579 21.3198 7.2833ZM23.7828 4.38049C23.7828 4.65415 23.9098 4.79098 24.1639 4.79098C24.6917 4.79098 25.6593 4.76166 27.0668 4.70302C28.4742 4.64438 29.2268 4.61506 29.3245 4.61506C29.5982 4.61506 29.7643 4.59551 29.823 4.55641C29.9012 4.49777 29.9402 4.40003 29.9402 4.2632C29.9402 3.67677 29.6666 2.99261 29.1192 2.21071C28.5719 1.42881 27.79 1.03786 26.7735 1.03786C25.8353 1.03786 25.1022 1.42881 24.5744 2.21071C24.0467 2.97306 23.7828 3.69632 23.7828 4.38049Z" fill="black"/>
<path d="M33.8054 7.2833C33.8054 5.32854 34.3527 3.67677 35.4474 2.32799C36.5616 0.979215 37.9983 0.304825 39.7576 0.304825C40.5786 0.304825 41.3214 0.451431 41.986 0.744644C42.6702 1.03786 43.198 1.39949 43.5694 1.82953C43.9408 2.24003 44.2535 2.67985 44.5077 3.14899C44.7618 3.61813 44.9279 4.00908 45.0061 4.32184C45.1039 4.61506 45.1527 4.83008 45.1527 4.96691C45.1527 5.31877 44.752 5.49469 43.9506 5.49469H36.415C36.2586 5.49469 36.1609 5.51424 36.1218 5.55334C36.1022 5.57289 36.0924 5.66085 36.0924 5.81723C36.0924 7.6547 36.5811 9.10122 37.5585 10.1568C38.5554 11.2123 39.7185 11.7401 41.0478 11.7401C41.8687 11.7401 42.6995 11.5251 43.5401 11.0951C44.4002 10.6455 44.8497 10.4207 44.8888 10.4207C45.0843 10.4207 45.1821 10.5086 45.1821 10.6846C45.1821 10.7628 45.1136 10.9094 44.9768 11.1244C44.84 11.3199 44.625 11.5544 44.3317 11.8281C44.0385 12.1018 43.6964 12.3657 43.3055 12.6198C42.9145 12.8739 42.4259 13.0889 41.8394 13.2648C41.253 13.4408 40.6373 13.5287 39.9922 13.5287C38.272 13.5287 36.8059 13.0009 35.594 11.9454C34.4016 10.8898 33.8054 9.33579 33.8054 7.2833ZM36.2684 4.38049C36.2684 4.65415 36.3954 4.79098 36.6496 4.79098C37.1773 4.79098 38.1449 4.76166 39.5524 4.70302C40.9598 4.64438 41.7124 4.61506 41.8101 4.61506C42.0838 4.61506 42.2499 4.59551 42.3086 4.55641C42.3868 4.49777 42.4259 4.40003 42.4259 4.2632C42.4259 3.67677 42.1522 2.99261 41.6049 2.21071C41.0575 1.42881 40.2756 1.03786 39.2592 1.03786C38.3209 1.03786 37.5878 1.42881 37.0601 2.21071C36.5323 2.97306 36.2684 3.69632 36.2684 4.38049Z" fill="black"/>
<path d="M52.417 0.918075C52.417 0.620742 52.6493 0.472075 53.1139 0.472075C54.6005 0.546408 55.4461 0.583575 55.6505 0.583575C55.9478 0.583575 56.4867 0.5557 57.2672 0.49995C58.0477 0.4442 58.5495 0.416325 58.7725 0.416325C59.3486 0.416325 59.8875 0.462783 60.3892 0.5557C60.9096 0.648616 61.4206 0.806575 61.9224 1.02957C62.4241 1.25257 62.8237 1.58707 63.121 2.03307C63.4183 2.46049 63.567 2.97153 63.567 3.5662C63.567 4.0122 63.5019 4.41174 63.3719 4.76482C63.2418 5.1179 63.0838 5.38736 62.898 5.57319C62.7307 5.75903 62.5542 5.9077 62.3684 6.01919C62.1825 6.13069 62.0246 6.21432 61.8945 6.27007C61.7644 6.30724 61.6994 6.33511 61.6994 6.35369C61.6994 6.39086 61.8016 6.43732 62.006 6.49307C62.2104 6.54882 62.452 6.64174 62.7307 6.77182C63.0281 6.88332 63.3161 7.05057 63.5949 7.27357C63.8922 7.47799 64.1431 7.80319 64.3475 8.24919C64.5519 8.67661 64.6541 9.18765 64.6541 9.78232C64.6541 9.98673 64.6169 10.219 64.5426 10.4792C64.4869 10.7394 64.3475 11.0553 64.1245 11.4269C63.9015 11.78 63.6041 12.1052 63.2325 12.4026C62.8608 12.6813 62.3219 12.9229 61.6157 13.1273C60.9096 13.3317 60.0919 13.4339 59.1627 13.4339C58.6052 13.4339 57.9084 13.3968 57.0721 13.3224C56.2359 13.2481 55.762 13.2109 55.6505 13.2109C55.5018 13.2109 55.1952 13.2202 54.7306 13.2388C54.266 13.276 53.9129 13.2946 53.6714 13.2946C53.2254 13.2946 53.0024 13.1738 53.0024 12.9322C53.0024 12.8207 53.0488 12.7278 53.1417 12.6534C53.2532 12.5791 53.3926 12.5141 53.5599 12.4583C53.7457 12.4026 53.8758 12.3561 53.9501 12.3189C54.1731 12.1889 54.3032 12.1145 54.3404 12.0959C54.3961 12.0588 54.4612 11.9194 54.5355 11.6778C54.6284 11.4362 54.6749 11.1389 54.6749 10.7858C54.6749 10.4141 54.6749 9.8009 54.6749 8.94607C54.6749 8.72307 54.6749 8.25848 54.6749 7.55232C54.6934 6.84615 54.7027 6.25149 54.7027 5.76832V2.64632C54.7027 2.53482 54.6749 2.39545 54.6191 2.2282C54.5819 2.06095 54.424 1.87511 54.1452 1.6707C53.8851 1.4477 53.532 1.3362 53.086 1.3362C52.9745 1.3362 52.8351 1.30832 52.6679 1.25257C52.5006 1.17824 52.417 1.06674 52.417 0.918075ZM56.654 11.1203C56.654 11.492 56.8212 11.7986 57.1557 12.0402C57.5088 12.2632 57.8805 12.4119 58.2707 12.4862C58.661 12.5605 59.0512 12.5977 59.4415 12.5977C60.2963 12.5977 61.0025 12.3189 61.56 11.7614C62.1361 11.1854 62.4241 10.5535 62.4241 9.86594C62.4241 7.84036 60.7144 6.82757 57.2951 6.82757C56.9978 6.82757 56.8119 6.92978 56.7376 7.13419C56.6819 7.32003 56.654 7.84036 56.654 8.69519V11.1203ZM56.7097 5.51745C56.7097 5.83336 56.7841 6.03778 56.9327 6.13069C57.1 6.20503 57.3973 6.2422 57.8247 6.2422H58.884C59.999 6.2422 60.7237 6.07494 61.0582 5.74045C61.4113 5.40595 61.5879 4.85774 61.5879 4.09582C61.5879 3.8914 61.5414 3.66841 61.4485 3.42682C61.3556 3.16666 61.1976 2.87861 60.9746 2.5627C60.7702 2.2282 60.4264 1.95874 59.9432 1.75432C59.4601 1.53132 58.8747 1.41982 58.1871 1.41982C57.5553 1.41982 57.1464 1.50345 56.9606 1.6707C56.7934 1.83795 56.7097 2.23749 56.7097 2.86932V5.51745Z" fill="black"/>
<path d="M64.3684 0.750824C64.3684 0.472075 64.5263 0.3327 64.8423 0.3327C64.9909 0.3327 65.3533 0.360575 65.9294 0.416325C66.5241 0.453492 67.0444 0.472075 67.4904 0.472075C67.7506 0.472075 68.1036 0.462783 68.5496 0.4442C69.0142 0.407033 69.423 0.38845 69.7761 0.38845C70.185 0.38845 70.3894 0.518534 70.3894 0.7787C70.3894 0.964533 70.3058 1.09462 70.1385 1.16895C69.9713 1.2247 69.7854 1.27116 69.581 1.30832C69.3952 1.32691 69.2186 1.45699 69.0514 1.69857C68.8841 1.92157 68.8005 2.27466 68.8005 2.75782C68.8005 2.79499 68.7912 3.31532 68.7726 4.31882C68.7726 5.30374 68.7726 6.41874 68.7726 7.66382C68.7726 8.36998 68.8191 8.97394 68.912 9.47569C69.0049 9.95886 69.1908 10.4513 69.4695 10.9531C69.7483 11.4548 70.185 11.8358 70.7796 12.0959C71.3929 12.3561 72.1548 12.4862 73.0654 12.4862C74.1804 12.4862 75.0724 12.1981 75.7414 11.6221C76.4104 11.046 76.8564 10.4699 77.0794 9.89382C77.3024 9.33632 77.4139 8.24919 77.4139 6.63244C77.4139 6.57669 77.4139 6.19574 77.4139 5.48957C77.4325 4.7834 77.4418 4.3374 77.4418 4.15157C77.4418 3.33391 77.3581 2.71136 77.1909 2.28395C77.0236 1.83795 76.8471 1.56849 76.6613 1.47557C76.494 1.38266 76.2431 1.30832 75.9086 1.25257C75.8529 1.23399 75.7693 1.2247 75.6578 1.2247C75.5648 1.20612 75.4905 1.19682 75.4348 1.19682C75.3976 1.17824 75.3418 1.15966 75.2675 1.14107C75.1932 1.12249 75.1374 1.10391 75.1003 1.08532C75.0817 1.04816 75.0631 1.0017 75.0445 0.945949C75.0259 0.890199 75.0166 0.825158 75.0166 0.750824C75.0166 0.490658 75.3604 0.360575 76.048 0.360575C76.1409 0.360575 76.4011 0.369867 76.8285 0.38845C77.2559 0.407033 77.5068 0.416325 77.5811 0.416325C77.897 0.416325 78.2315 0.397742 78.5846 0.360575C78.9377 0.323408 79.1514 0.304825 79.2258 0.304825C79.6718 0.304825 79.8948 0.4442 79.8948 0.72295C79.8948 0.8902 79.8204 1.01099 79.6717 1.08532C79.5417 1.15966 79.393 1.20612 79.2258 1.2247C79.0585 1.24328 78.9005 1.35478 78.7519 1.5592C78.6218 1.74503 78.5568 2.03307 78.5568 2.42332V3.70557C78.5568 6.73465 78.4081 8.81598 78.1108 9.94957C77.8692 10.8416 77.3117 11.6778 76.4383 12.4583C75.5648 13.2202 74.3848 13.6012 72.8981 13.6012C72.1734 13.6012 71.5787 13.5826 71.1141 13.5454C70.6495 13.5083 70.1013 13.3968 69.4695 13.2109C68.8377 13.0251 68.3452 12.7649 67.9921 12.4304C67.6391 12.0774 67.3231 11.5663 67.0444 10.8973C66.7842 10.2283 66.6541 9.41065 66.6541 8.44432C66.6541 8.2399 66.6541 7.85894 66.6541 7.30144C66.6727 6.74394 66.682 6.28865 66.682 5.93557V2.6742C66.682 2.09812 66.5798 1.73574 66.3754 1.58707C66.171 1.41982 65.7343 1.29903 65.0653 1.2247C64.6007 1.16895 64.3684 1.01099 64.3684 0.750824Z" fill="black"/>
<path d="M79.8586 0.945949C79.8586 0.797283 79.9236 0.676492 80.0537 0.583575C80.1838 0.472075 80.3139 0.416325 80.444 0.416325C80.4997 0.416325 80.7413 0.4442 81.1687 0.49995C81.6147 0.5557 82.2466 0.583575 83.0642 0.583575C83.3244 0.583575 83.7053 0.564992 84.2071 0.527825C84.7274 0.472075 85.2199 0.4442 85.6845 0.4442C86.0747 0.4442 86.2698 0.574283 86.2698 0.834449C86.2698 0.945949 86.2234 1.03887 86.1305 1.1132C86.0561 1.16895 85.9261 1.2247 85.7402 1.28045C85.5544 1.31762 85.415 1.36407 85.3221 1.41982C85.0991 1.51274 84.9318 1.60566 84.8203 1.69857C84.7274 1.77291 84.6252 1.95874 84.5137 2.25607C84.4208 2.53482 84.3743 2.93436 84.3743 3.4547C84.3743 3.49186 84.3651 4.59757 84.3465 6.77182C84.3279 8.92748 84.3186 10.1261 84.3186 10.3677C84.3186 11.3712 84.5973 12.0123 85.1548 12.2911C85.415 12.4026 85.8703 12.4583 86.5207 12.4583C86.8181 12.4583 86.9667 12.5791 86.9667 12.8207C86.9667 13.1366 86.7902 13.2946 86.4371 13.2946C86.0468 13.2946 85.5079 13.2667 84.8203 13.2109C84.1513 13.1552 83.7239 13.1273 83.5381 13.1273C83.1664 13.1273 82.7669 13.1459 82.3395 13.1831C81.9121 13.2016 81.5961 13.2109 81.3917 13.2109C81.0201 13.2109 80.7785 13.1831 80.667 13.1273C80.5741 13.0716 80.5276 12.9694 80.5276 12.8207C80.5276 12.6534 80.7134 12.5326 81.0851 12.4583C81.6054 12.3282 81.9306 12.0588 82.0607 11.6499C82.2094 11.2411 82.2837 10.3956 82.2837 9.11332C82.2837 7.88682 82.2837 6.77182 82.2837 5.76832C82.3023 4.76482 82.3116 4.05866 82.3116 3.64982C82.3116 3.20382 82.2373 2.66491 82.0886 2.03307C81.9957 1.60566 81.4939 1.39195 80.5833 1.39195C80.3789 1.39195 80.2117 1.35478 80.0816 1.28045C79.9701 1.20612 79.9051 1.14107 79.8865 1.08532C79.8679 1.02957 79.8586 0.983116 79.8586 0.945949Z" fill="black"/>
<path d="M86.4201 0.7787C86.4201 0.5557 86.6803 0.4442 87.2006 0.4442C87.3864 0.4442 87.7395 0.462783 88.2599 0.49995C88.7988 0.518533 89.2076 0.527825 89.4864 0.527825C90.0253 0.527825 90.4713 0.518533 90.8244 0.49995C91.196 0.462783 91.4655 0.4442 91.6327 0.4442C92.2274 0.4442 92.5247 0.583575 92.5247 0.862325C92.5247 1.02957 92.3482 1.17824 91.9951 1.30832C91.642 1.41982 91.4283 1.51274 91.354 1.58707C91.0938 1.90299 90.9637 2.43262 90.9637 3.17595C90.9637 4.94136 90.9637 5.97274 90.9637 6.27007C90.9823 6.5674 90.9916 7.97044 90.9916 10.4792V11.0088C90.9916 11.4548 91.0659 11.7707 91.2146 11.9566C91.3819 12.1238 91.7349 12.2074 92.2738 12.2074C93.2959 12.2074 94.1601 12.1145 94.8662 11.9287C95.591 11.7243 96.0927 11.5106 96.3715 11.2876C96.6502 11.046 96.8825 10.8323 97.0683 10.6464C97.2728 10.442 97.4214 10.3398 97.5143 10.3398C97.7188 10.3398 97.821 10.5164 97.821 10.8694C97.821 11.4269 97.5701 11.9937 97.0683 12.5698C96.5852 13.1273 95.8326 13.4061 94.8105 13.4061C94.4574 13.4061 93.7698 13.3596 92.7477 13.2667C91.7256 13.1738 90.8615 13.1273 90.1554 13.1273C89.635 13.1273 89.124 13.1552 88.6222 13.2109C88.1391 13.2481 87.8417 13.2667 87.7302 13.2667C87.34 13.2667 87.1449 13.1366 87.1449 12.8764C87.1449 12.6906 87.2378 12.5698 87.4236 12.5141C87.6094 12.4397 87.8139 12.3933 88.0369 12.3747C88.2599 12.3561 88.4643 12.2353 88.6501 12.0123C88.8359 11.7707 88.9289 11.4084 88.9289 10.9252C88.9289 10.8137 88.9196 10.5442 88.901 10.1168C88.901 9.6894 88.901 9.29915 88.901 8.94607C88.901 8.10982 88.9103 7.0134 88.9289 5.65682C88.9474 4.30024 88.9567 3.47328 88.9567 3.17595C88.9567 2.5627 88.8266 2.1167 88.5665 1.83795C88.3063 1.5592 88.009 1.41982 87.6745 1.41982C87.3586 1.40124 87.0705 1.35478 86.8104 1.28045C86.5502 1.18753 86.4201 1.02028 86.4201 0.7787Z" fill="black"/>
<path d="M96.956 0.834449C96.956 0.592866 97.1604 0.472075 97.5692 0.472075C97.5692 0.472075 97.7179 0.481367 98.0152 0.49995C98.3126 0.49995 98.6749 0.509241 99.1023 0.527825C99.5298 0.546408 99.8921 0.5557 100.189 0.5557C100.84 0.5557 101.695 0.537116 102.754 0.49995C103.832 0.462783 104.389 0.4442 104.426 0.4442C106.675 0.4442 108.459 0.964533 109.778 2.0052C111.116 3.02728 111.785 4.49536 111.785 6.40944C111.785 7.50586 111.618 8.42573 111.284 9.16907C110.949 9.9124 110.447 10.6743 109.778 11.4548C109.295 12.0123 108.645 12.4583 107.827 12.7928C107.028 13.1087 106.406 13.2853 105.96 13.3224C105.514 13.3782 105.114 13.4061 104.761 13.4061C104.464 13.4061 103.785 13.3689 102.726 13.2946C101.685 13.2388 100.951 13.2109 100.524 13.2109C100.059 13.2109 99.5391 13.2388 98.963 13.2946C98.4055 13.3689 98.0989 13.4061 98.0431 13.4061C97.7086 13.4061 97.5414 13.2388 97.5414 12.9043C97.5414 12.7185 97.6157 12.5977 97.7644 12.5419C97.9316 12.4862 98.136 12.449 98.3776 12.4304C98.6192 12.3933 98.805 12.3189 98.9351 12.2074C99.1581 12.0216 99.2696 11.6314 99.2696 11.0367C99.2696 9.40136 99.2696 8.07265 99.2696 7.05057C99.2882 6.02849 99.2975 5.38736 99.2975 5.1272C99.2975 4.86703 99.2975 4.64403 99.2975 4.4582C99.3161 4.25378 99.3254 4.04936 99.3254 3.84495C99.3254 2.30253 98.8886 1.49416 98.0152 1.41982C97.9781 1.41982 97.9037 1.41982 97.7922 1.41982C97.6993 1.40124 97.625 1.39195 97.5692 1.39195C97.5135 1.39195 97.4391 1.38266 97.3462 1.36407C97.2533 1.34549 97.179 1.31762 97.1232 1.28045C97.0861 1.2247 97.0489 1.16895 97.0117 1.1132C96.9746 1.03887 96.956 0.945949 96.956 0.834449ZM101.36 10.3956C101.36 11.7336 102.02 12.4026 103.339 12.4026C105.551 12.4026 107.084 11.9844 107.939 11.1482C108.961 10.1633 109.472 8.97394 109.472 7.58019C109.472 5.70328 108.896 4.20732 107.744 3.09232C106.61 1.97732 105.142 1.41982 103.339 1.41982H102.336C101.908 1.41982 101.648 1.49416 101.555 1.64282C101.462 1.77291 101.416 2.1167 101.416 2.6742C101.416 3.04586 101.407 4.36528 101.388 6.63244C101.37 8.89961 101.36 10.154 101.36 10.3956Z" fill="black"/>
</svg>
