<svg width="20" height="21" viewBox="0 0 20 21" fill="none" xmlns="http://www.w3.org/2000/svg"><path d="M14.6777 11.2067L19.8985 16.4275L17.256 19.07C16.7954 19.5286 16.2484 19.8912 15.6465 20.1367C15.0447 20.3822 14.4001 20.5057 13.7502 20.5C7.71016 20.5 0.000162584 12.79 0.000162584 6.75C-0.00512351 6.09999 0.118539 5.45537 0.363996 4.85346C0.609452 4.25155 0.97183 3.70429 1.43016 3.24333L4.07266 0.601667L9.2935 5.8225L5.856 9.26C6.87793 11.6886 8.80731 13.6224 11.2335 14.65L14.6777 11.2067ZM18.3335 8.83333H20.0002C19.9977 6.62394 19.119 4.50573 17.5567 2.94346C15.9944 1.38118 13.8762 0.502426 11.6668 0.5V2.16667C13.4343 2.16865 15.1289 2.87167 16.3787 4.12148C17.6285 5.37129 18.3315 7.06583 18.3335 8.83333ZM15.0002 8.83333H16.6668C16.6655 7.50766 16.1383 6.23666 15.2009 5.29926C14.2635 4.36187 12.9925 3.83466 11.6668 3.83333V5.5C12.5509 5.5 13.3987 5.85119 14.0238 6.47631C14.649 7.10143 15.0002 7.94928 15.0002 8.83333Z" fill="#1260F5"/></svg>