<svg width="54" height="52" viewBox="0 0 54 52" fill="none" xmlns="http://www.w3.org/2000/svg">
<path fill-rule="evenodd" clip-rule="evenodd" d="M22.4492 9.321H13.6097V0.481445H9.18989V9.321H0.350342V13.7408H9.18989V22.5803H13.6097V13.7408H22.4492V9.321ZM22.4492 33.6298H0.350342V38.0495H22.4492V33.6298ZM0.350342 44.6792H22.4492V49.099H0.350342V44.6792ZM53.3877 9.321H31.2888V13.7408H53.3877V9.321ZM53.3877 32.3259L45.4542 40.2594L53.3877 48.1929L50.2717 51.3089L42.3382 43.3754L34.4047 51.3089L31.2888 48.1929L39.2223 40.2594L31.2888 32.3259L34.4047 29.21L42.3382 37.1435L50.2717 29.21L53.3877 32.3259Z" fill="black"/>
</svg>
