<svg width="65" height="65" viewBox="0 0 65 65" fill="none" xmlns="http://www.w3.org/2000/svg">
<path fill-rule="evenodd" clip-rule="evenodd" d="M51.4429 61.9385C47.9275 61.9346 44.5572 60.5364 42.0715 58.0506C39.5857 55.5649 38.1875 52.1946 38.1836 48.6792C38.1853 47.524 38.342 46.3742 38.6497 45.2607L19.5032 26.1147C18.3896 26.422 17.2399 26.5786 16.0847 26.5803C13.9244 26.5891 11.7949 26.0678 9.88299 25.0621C7.97106 24.0563 6.33506 22.5969 5.11844 20.8117C3.90183 19.0265 3.14176 16.9701 2.90487 14.8228C2.66798 12.6755 2.96151 10.5029 3.75973 8.49547L4.99218 5.35323L12.3124 12.6735C12.7331 13.0753 13.2925 13.2995 13.8743 13.2995C14.456 13.2995 15.0154 13.0753 15.4361 12.6735C15.6415 12.4684 15.8045 12.2249 15.9157 11.9568C16.0269 11.6886 16.0842 11.4012 16.0842 11.111C16.0842 10.8207 16.0269 10.5333 15.9157 10.2652C15.8045 9.99709 15.6415 9.75353 15.4361 9.54848L8.11497 2.22513L11.2603 0.994003C13.2679 0.196809 15.4403 -0.0958779 17.5873 0.141588C19.7343 0.379055 21.7903 1.13943 23.5751 2.35608C25.3599 3.57274 26.8192 5.20854 27.8249 7.12018C28.8307 9.03181 29.3523 11.1609 29.344 13.321C29.3424 14.4762 29.1856 15.626 28.878 16.7395L48.0244 35.8848C49.1381 35.5779 50.2878 35.4216 51.4429 35.4199C53.6032 35.411 55.7328 35.9323 57.6447 36.938C59.5567 37.9437 61.1927 39.4032 62.4093 41.1884C63.6259 42.9736 64.386 45.03 64.6228 47.1773C64.8596 49.3246 64.566 51.4973 63.7677 53.5047L62.5366 56.6469L55.2152 49.3267C54.7945 48.9249 54.2351 48.7007 53.6534 48.7007C53.0716 48.7007 52.5122 48.9249 52.0915 49.3267C51.886 49.5317 51.723 49.7752 51.6117 50.0432C51.5004 50.3113 51.443 50.5987 51.4429 50.889C51.4428 51.1792 51.5 51.4667 51.6111 51.7348C51.7222 52.003 51.8851 52.2466 52.0904 52.4517L59.4107 59.7728L56.2684 61.0057C54.7327 61.6167 53.0957 61.9331 51.4429 61.9385ZM20.6426 21.0032L43.76 44.1213L43.2314 45.468C42.7139 46.7619 42.5117 48.1603 42.6413 49.5478C42.7709 50.9352 43.2288 52.272 43.977 53.4476C44.7253 54.6232 45.7424 55.6039 46.9445 56.3088C48.1466 57.0137 49.4992 57.4225 50.8905 57.5015L48.9654 55.5765C48.3497 54.961 47.8612 54.2302 47.528 53.4259C47.1947 52.6216 47.0232 51.7595 47.0232 50.8889C47.0232 50.0182 47.1947 49.1561 47.528 48.3518C47.8612 47.5475 48.3497 46.8167 48.9654 46.2012C50.2285 44.9957 51.9075 44.3232 53.6536 44.3234C55.3997 44.3236 57.0785 44.9965 58.3413 46.2023L60.2652 48.1267C60.1861 46.7354 59.7771 45.3829 59.0721 44.1808C58.3671 42.9787 57.3862 41.9616 56.2106 41.2133C55.0349 40.4651 53.6981 40.0073 52.3106 39.8776C50.923 39.748 49.5246 39.9502 48.2306 40.4677L46.8839 40.9947L23.7685 17.8793L24.2971 16.5326C24.8146 15.2387 25.0169 13.8403 24.8873 12.4528C24.7577 11.0653 24.2999 9.72853 23.5517 8.55289C22.8035 7.37725 21.7863 6.39646 20.5842 5.69152C19.3821 4.98658 18.0296 4.5777 16.6383 4.49866L18.5622 6.4237C19.178 7.03919 19.6664 7.76997 19.9997 8.57428C20.3329 9.3786 20.5045 10.2407 20.5045 11.1113C20.5045 11.9819 20.3329 12.844 19.9997 13.6483C19.6664 14.4527 19.178 15.1834 18.5622 15.7989C17.2991 17.0045 15.6201 17.677 13.8741 17.6768C12.128 17.6766 10.4491 17.0037 9.18633 15.7978L7.2624 13.8735C7.34126 15.2648 7.75 16.6174 8.45487 17.8195C9.15974 19.0217 10.1405 20.0389 11.3162 20.7871C12.4918 21.5353 13.8286 21.9931 15.2161 22.1226C16.6036 22.2522 18.0021 22.0497 19.2959 21.532L20.6426 21.0032ZM18.1048 49.784L27.5123 40.377L24.3875 37.252L14.9798 46.659L13.2274 44.9068C13.0223 44.7015 12.7787 44.5386 12.5106 44.4275C12.2426 44.3164 11.9552 44.2592 11.665 44.2592C11.3748 44.2592 11.0874 44.3164 10.8194 44.4275C10.5513 44.5386 10.3077 44.7015 10.1026 44.9068L1.26305 53.7463C1.05776 53.9515 0.8949 54.195 0.783785 54.4631C0.67267 54.7312 0.615479 55.0185 0.615479 55.3087C0.615479 55.5989 0.67267 55.8863 0.783785 56.1544C0.8949 56.4225 1.05776 56.666 1.26305 56.8711L7.89272 63.5008C8.09784 63.7061 8.34141 63.8689 8.60949 63.98C8.87757 64.0911 9.16492 64.1483 9.45511 64.1483C9.7453 64.1483 10.0326 64.0911 10.3007 63.98C10.5688 63.8689 10.8124 63.7061 11.0175 63.5008L19.8571 54.6612C20.0623 54.4561 20.2252 54.2126 20.3363 53.9445C20.4474 53.6764 20.5046 53.389 20.5046 53.0988C20.5046 52.8086 20.4474 52.5213 20.3363 52.2532C20.2252 51.9851 20.0623 51.7416 19.8571 51.5364L18.1048 49.784ZM9.45511 58.8134L5.95045 55.3087L11.665 49.5942L15.1697 53.0988L9.45511 58.8134ZM58.0763 0.0615234C59.8222 0.0615234 61.5009 0.73423 62.7637 1.93985C64.0055 3.1842 64.7029 4.87043 64.7027 6.62842C64.7025 8.38641 64.0048 10.0725 62.7628 11.3166L46.2328 27.8455L43.108 24.7205L59.638 8.19052C60.0516 7.77549 60.2838 7.21347 60.2838 6.62758C60.2838 6.04168 60.0516 5.47967 59.638 5.06463C59.2169 4.66301 58.6574 4.43894 58.0755 4.43894C57.4936 4.43894 56.9341 4.66301 56.513 5.06463L39.983 21.5946L36.858 18.4698L53.3889 1.93985C54.6517 0.73423 56.3304 0.0615234 58.0763 0.0615234Z" fill="black"/>
</svg>
