<svg width="63" height="62" viewBox="0 0 63 62" fill="none" xmlns="http://www.w3.org/2000/svg">
<path d="M61.5666 43.5223L47.5674 29.5207L61.5642 15.5233C62.3933 14.6949 62.8595 13.5712 62.8602 12.3992C62.8609 11.2271 62.3961 10.1028 61.5679 9.27349L61.5642 9.26907L53.6528 1.35767C52.8243 0.528384 51.7004 0.0621457 50.5282 0.0615241C49.356 0.0609024 48.2316 0.525948 47.4023 1.35436L47.3986 1.35767L33.402 15.3529L19.4028 1.35215C18.5728 0.525646 17.449 0.061709 16.2777 0.0619161C15.1063 0.0621232 13.9828 0.526457 13.153 1.35325L2.27662 12.2301C1.44823 13.0593 0.98291 14.1835 0.98291 15.3555C0.98291 16.5276 1.44823 17.6518 2.27662 18.481L16.2736 32.4795L0.982949 47.7695V61.9387H15.1497L30.4399 46.6476L44.4404 60.6503C45.2715 61.4755 46.3952 61.9387 47.5664 61.9387C48.7376 61.9387 49.8613 61.4755 50.6924 60.6503L61.5666 49.7726C62.3948 48.9434 62.86 47.8194 62.86 46.6475C62.86 45.4755 62.3948 44.3515 61.5666 43.5223V43.5223ZM50.5138 4.47362L58.4473 12.4071L44.4514 26.4037L36.518 18.4702L50.5138 4.47362ZM14.2423 57.5189H5.40273V49.5823L19.3893 35.5968L27.5151 43.7243L14.2423 57.5189ZM47.5674 57.5266L5.40273 15.3571L16.2796 4.48157L24.6509 12.8515L19.6742 17.8293L22.8018 20.9543L27.7756 15.9776L36.9011 25.1031L31.9214 30.0796L35.0506 33.2046L40.0266 28.2279L49.1534 37.3548L44.1774 42.3292L47.3024 45.4562L52.2782 40.4807L58.4453 46.6484L47.5674 57.5266Z" fill="black"/>
</svg>
