<svg width="16" height="18" viewBox="0 0 16 18" fill="none" xmlns="http://www.w3.org/2000/svg">
<path fill-rule="evenodd" clip-rule="evenodd" d="M14.25 1.5V16.5H1.75V1.5H14.25ZM14.25 0.25H1.75C1.41848 0.25 1.10054 0.381696 0.866116 0.616116C0.631696 0.850537 0.5 1.16848 0.5 1.5V16.5C0.5 16.8315 0.631696 17.1495 0.866116 17.3839C1.10054 17.6183 1.41848 17.75 1.75 17.75H14.25C14.5815 17.75 14.8995 17.6183 15.1339 17.3839C15.3683 17.1495 15.5 16.8315 15.5 16.5V1.5C15.5 1.16848 15.3683 0.850537 15.1339 0.616116C14.8995 0.381696 14.5815 0.25 14.25 0.25ZM4.875 13.375H3.625V14.625H4.875V13.375ZM11.125 13.375H12.375V14.625H11.125V13.375ZM4.875 10.25H3.625V11.5H4.875V10.25ZM11.125 10.25H12.375V11.5H11.125V10.25ZM4.875 7.125H3.625V8.375H4.875V7.125ZM7.375 13.375H8.625V14.625H7.375V13.375ZM8.625 10.25H7.375V11.5H8.625V10.25ZM7.375 7.125H8.625V8.375H7.375V7.125ZM12.375 7.125H11.125V8.375H12.375V7.125ZM3.625 3.375H12.375V5.25H3.625V3.375Z" fill="white"/>
</svg>
