<svg width="18" height="18" viewBox="0 0 18 18" fill="none" xmlns="http://www.w3.org/2000/svg">
<path d="M17.3814 12.5438L5.46261 0.612519C5.34652 0.496298 5.20866 0.4041 5.05691 0.341194C4.90517 0.278289 4.74251 0.245911 4.57824 0.245911C4.41397 0.245911 4.25131 0.278289 4.09956 0.341194C3.94781 0.4041 3.80995 0.496298 3.69386 0.612519L0.618862 3.69377C0.386048 3.92797 0.255371 4.24479 0.255371 4.57502C0.255371 4.90525 0.386048 5.22207 0.618862 5.45627L12.5376 17.3875C12.6544 17.5034 12.7929 17.595 12.9452 17.6572C13.0975 17.7194 13.2606 17.751 13.4251 17.75C13.7552 17.7503 14.072 17.62 14.3064 17.3875L17.3814 14.3063C17.6142 14.0721 17.7449 13.7553 17.7449 13.425C17.7449 13.0948 17.6142 12.778 17.3814 12.5438ZM13.4251 16.5L1.50011 4.57502L4.57511 1.50002L6.94386 3.86877L5.53761 5.25002L6.41886 6.13127L7.82511 4.75002L10.4064 7.33127L9.00011 8.73752L9.88761 9.62502L11.2939 8.21877L13.8751 10.8L12.4689 12.2063L13.3751 13.0875L14.7814 11.6813L16.5001 13.425L13.4251 16.5Z" fill="white"/>
</svg>
