<svg width="54" height="62" viewBox="0 0 54 62" fill="none" xmlns="http://www.w3.org/2000/svg">
<path fill-rule="evenodd" clip-rule="evenodd" d="M3.53771 34.3898C5.60919 36.4612 8.41778 37.6264 11.3473 37.6296C14.2768 37.6264 17.0854 36.4612 19.1569 34.3898C21.2283 32.3183 22.3935 29.5097 22.3967 26.5802V6.69119C22.3967 4.93289 21.6983 3.24661 20.4549 2.00331C19.2116 0.760004 17.5254 0.0615234 15.7671 0.0615234C14.0088 0.0615234 12.3225 0.760004 11.0792 2.00331C9.83588 3.24661 9.1374 4.93289 9.1374 6.69119V28.7901H13.5572V6.69119C13.5572 6.10509 13.79 5.543 14.2044 5.12856C14.6189 4.71413 15.181 4.4813 15.7671 4.4813C16.3532 4.4813 16.9153 4.71413 17.3297 5.12856C17.7441 5.543 17.977 6.10509 17.977 6.69119V26.5802C17.977 28.3385 17.2785 30.0248 16.0352 31.2681C14.7919 32.5114 13.1056 33.2098 11.3473 33.2098C9.589 33.2098 7.90271 32.5114 6.65941 31.2681C5.41611 30.0248 4.71763 28.3385 4.71763 26.5802V2.27141H0.297852V26.5802C0.301069 29.5097 1.46624 32.3183 3.53771 34.3898ZM48.9154 61.9384H15.7671C14.5953 61.9371 13.4719 61.471 12.6433 60.6424C11.8147 59.8138 11.3486 58.6904 11.3473 57.5186V44.2593H15.7671V57.5186H48.9154V8.90108H29.0264V4.4813H48.9154C50.0872 4.48265 51.2106 4.94873 52.0392 5.77731C52.8677 6.60589 53.3338 7.72929 53.3352 8.90108V57.5186C53.3338 58.6904 52.8677 59.8138 52.0392 60.6424C51.2106 61.471 50.0872 61.9371 48.9154 61.9384ZM44.4956 17.7406H29.0264V22.1604H44.4956V17.7406ZM26.8165 28.7901H44.4956V33.2098H26.8165V28.7901ZM44.4956 39.8395H24.6066V44.2593H44.4956V39.8395Z" fill="black"/>
</svg>
