<svg width="70" height="40" viewBox="0 0 70 40" fill="none" xmlns="http://www.w3.org/2000/svg">
<path d="M64.2757 0H5.67242C4.37721 0 3.13505 0.421427 2.21919 1.17157C1.30334 1.92172 0.788818 2.93913 0.788818 4V36C0.788818 37.0609 1.30334 38.0783 2.21919 38.8284C3.13505 39.5786 4.37721 40 5.67242 40H64.2757C65.5709 40 66.8131 39.5786 67.7289 38.8284C68.6448 38.0783 69.1593 37.0609 69.1593 36V4C69.1593 2.93913 68.6448 1.92172 67.7289 1.17157C66.8131 0.421427 65.5709 0 64.2757 0V0ZM58.9037 4L34.9741 17.56L11.0444 4H58.9037ZM5.67242 36V5.82L33.5822 21.64C33.991 21.8723 34.4766 21.9967 34.9741 21.9967C35.4715 21.9967 35.9571 21.8723 36.3659 21.64L64.2757 5.82V36H5.67242Z" fill="black"/>
</svg>
